<svg width="41" height="55" viewBox="0 0 41 55" fill="none" xmlns="http://www.w3.org/2000/svg">
<g filter="url(#filter0_d_222_1084)">
<path d="M7.47766 0.408018C7.60274 0.193572 7.88373 0.193369 8.10294 0.21545C8.33082 0.25834 8.55416 0.322576 8.77 0.407327C9.18628 0.606596 9.58562 0.839474 9.96407 1.10364C10.3501 1.35511 10.7183 1.63283 11.0662 1.93481C11.4147 2.23328 11.7905 2.50665 12.1172 2.8281C13.4794 4.06156 14.7677 5.37203 16.0186 6.71358C18.5162 9.40473 20.8164 12.2588 23.1233 15.1053C25.413 17.9651 27.6247 20.8856 29.7896 23.8374C31.9908 26.7649 34.0539 29.7875 36.1889 32.7609L36.4964 33.1894L36.1682 33.6138L31.1937 40.0464L26.191 46.4573L25.7675 47.0001L25.254 46.5634C23.2966 44.8993 21.4061 43.1923 19.5641 41.4196C17.722 39.6504 15.9118 37.8487 14.1596 35.9907C12.4067 34.1337 10.708 32.2235 9.12276 30.2199C7.51901 28.2343 6.05202 26.1419 4.73193 23.9573C6.21471 26.0218 7.80755 28.0049 9.50352 29.8981C11.2033 31.7838 12.9809 33.5959 14.7718 35.3916C16.5766 37.1752 18.4378 38.9012 20.3282 40.5927C22.2269 42.2712 24.1377 43.952 26.088 45.5497L25.1512 45.6558L30.0742 39.1837L35.0252 32.733L35.0046 33.5855C32.9022 30.6003 30.83 27.5915 28.6953 24.6309C26.5909 21.6468 24.4217 18.7122 22.2632 15.7694C20.0729 12.853 17.8644 9.94399 15.5037 7.16839C14.3398 5.76664 13.1382 4.39576 11.8613 3.0989C11.5547 2.76001 11.2034 2.47366 10.8754 2.15817C10.5492 1.84259 10.2036 1.54759 9.84078 1.27488C9.49032 0.987489 9.11697 0.729216 8.72446 0.502634C8.52233 0.405238 8.31172 0.326553 8.09525 0.267557C7.88639 0.231238 7.61826 0.206338 7.47766 0.408018Z" fill="#E6952A"/>
</g>
<defs>
<filter id="filter0_d_222_1084" x="0.731934" y="0.206055" width="39.7646" height="54.7941" filterUnits="userSpaceOnUse" color-interpolation-filters="sRGB">
<feFlood flood-opacity="0" result="BackgroundImageFix"/>
<feColorMatrix in="SourceAlpha" type="matrix" values="0 0 0 0 0 0 0 0 0 0 0 0 0 0 0 0 0 0 127 0" result="hardAlpha"/>
<feOffset dy="4"/>
<feGaussianBlur stdDeviation="2"/>
<feComposite in2="hardAlpha" operator="out"/>
<feColorMatrix type="matrix" values="0 0 0 0 0 0 0 0 0 0 0 0 0 0 0 0 0 0 0.25 0"/>
<feBlend mode="normal" in2="BackgroundImageFix" result="effect1_dropShadow_222_1084"/>
<feBlend mode="normal" in="SourceGraphic" in2="effect1_dropShadow_222_1084" result="shape"/>
</filter>
</defs>
</svg>
